<svg id="Main" xmlns="http://www.w3.org/2000/svg" viewBox="0 0 512 512"><defs><style>.cls-1,.cls-2,.cls-3{fill:none;stroke:#333;stroke-width:10px;}.cls-1{stroke-linejoin:round;}.cls-2{stroke-linecap:round;}.cls-2,.cls-3{stroke-miterlimit:10;}</style></defs><rect class="cls-1" x="74.99" y="127.5" width="362.03" height="256" rx="28.84"/><line class="cls-2" x1="128" y1="255.5" x2="384" y2="256.01"/><line class="cls-2" x1="128" y1="206.54" x2="384" y2="207.05"/><line class="cls-2" x1="128" y1="304.46" x2="384" y2="304.97"/><path class="cls-3" d="M50,165.5H75a0,0,0,0,1,0,0v181a0,0,0,0,1,0,0H50a45,45,0,0,1-45-45V210.47A45,45,0,0,1,50,165.5Z"/><path class="cls-3" d="M482,165.67h25a0,0,0,0,1,0,0v181a0,0,0,0,1,0,0H482a45,45,0,0,1-45-45V210.64a45,45,0,0,1,45-45Z" transform="translate(944.02 512.37) rotate(180)"/></svg>